#Comment line ignore any data following # character 
#Hierarchical Translation and Rotation (.htr) file 
[Header]	
#Header keywords are followed by a single value 
FileType HTR		#Single word string
DataType HTRS		#Translation followed by rotation and scale data
FileVersion 1		#integer
NumSegments 64		#integer
NumFrames 3		#integer
DataFrameRate 30		#integer, data frame rate in this file
EulerRotationOrder ZYX
CalibrationUnits mm
RotationUnits Degrees
GlobalAxisofGravity Y
BoneLengthAxis Y
ScaleFactor 1.00
[SegmentNames&Hierarchy]
#CHILD	PARENT
Pinger_Root GLOBAL
Pelvis Pinger_Root
L_Hip Pelvis
R_Hip Pelvis
Rear_Leg01 Pelvis
Spine1 Pelvis
L_Leg01 L_Hip
L_Leg02 L_Leg01
L_Leg03 L_Leg02
L_Foot L_Leg03
L_Toe1_01 L_Foot
L_Toe2_01 L_Foot
L_Toe3_01 L_Foot
planeAlignerLeft L_Foot
L_Toe1_02 L_Toe1_01
L_Toe1_03 L_Toe1_02
L_Toe2_02 L_Toe2_01
L_Toe2_03 L_Toe2_02
L_Toe3_02 L_Toe3_01
L_Toe3_03 L_Toe3_02
planeLockWeightLeft planeAlignerLeft
R_Leg01 R_Hip
R_Leg02 R_Leg01
R_Leg03 R_Leg02
R_Foot R_Leg03
planeAlignerRight R_Foot
R_Toe1_01 R_Foot
R_Toe2_01 R_Foot
R_Toe3_01 R_Foot
planeLockWeightRight planeAlignerRight
R_Toe1_02 R_Toe1_01
R_Toe1_03 R_Toe1_02
R_Toe2_02 R_Toe2_01
R_Toe2_03 R_Toe2_02
R_Toe3_02 R_Toe3_01
R_Toe3_03 R_Toe3_02
Rear_Leg02 Rear_Leg01
Rear_Leg03 Rear_Leg02
Rear_Leg04 Rear_Leg03
Rear_Foot Rear_Leg04
planeAlignerCenter Rear_Foot
Rear_Toe1_01 Rear_Foot
Rear_Toe2_01 Rear_Foot
Rear_Toe3_01 Rear_Foot
planeLockWeightCenter planeAlignerCenter
Rear_Toe1_02 Rear_Toe1_01
Rear_Toe1_03 Rear_Toe1_02
Rear_Toe2_02 Rear_Toe2_01
Rear_Toe2_03 Rear_Toe2_02
Rear_Toe3_02 Rear_Toe3_01
Rear_Toe3_03 Rear_Toe3_02
Back_Bone Spine1
Head Spine1
Motor_Bone Back_Bone
Ping_Mechanism Back_Bone
BN_LookIK Head
bottomMouth Head
L_Mouth01 Head
L_mouthFront Head
mouthGun Head
R_Mouth01 Head
R_mouthFront Head
TopMouth Head
weapon_bone Head
[BasePosition]
#SegmentName Tx, Ty, Tz, Rx, Ry, Rz, BoneLength
Pinger_Root 0.000000 0.000000 0.000000 -90.000000 0.000000 0.000000 10.000000 
Pelvis 0.000000 0.000000 0.000000 0.000000 0.000000 0.000000 10.000000 
L_Hip 0.000000 0.000000 0.000000 0.000000 0.000000 0.000000 10.000000 
R_Hip 0.000000 0.000000 0.000000 0.000000 0.000000 0.000000 10.000000 
Rear_Leg01 0.000000 0.000000 0.000000 0.000000 0.000000 0.000000 10.000000 
Spine1 0.000000 0.000000 0.000000 0.000000 0.000000 0.000000 10.000000 
L_Leg01 0.000000 0.000000 0.000000 0.000000 0.000000 0.000000 10.000000 
L_Leg02 0.000000 0.000000 0.000000 0.000000 0.000000 0.000000 10.000000 
L_Leg03 0.000000 0.000000 0.000000 0.000000 0.000000 0.000000 10.000000 
L_Foot 0.000000 0.000000 0.000000 0.000000 0.000000 0.000000 10.000000 
L_Toe1_01 0.000000 0.000000 0.000000 0.000000 0.000000 0.000000 10.000000 
L_Toe2_01 0.000000 0.000000 0.000000 0.000000 0.000000 0.000000 10.000000 
L_Toe3_01 0.000000 0.000000 0.000000 0.000000 0.000000 0.000000 10.000000 
planeAlignerLeft 0.000000 0.000000 0.000000 0.000000 0.000000 0.000000 10.000000 
L_Toe1_02 0.000000 0.000000 0.000000 0.000000 0.000000 0.000000 10.000000 
L_Toe1_03 0.000000 0.000000 0.000000 0.000000 0.000000 0.000000 10.000000 
L_Toe2_02 0.000000 0.000000 0.000000 0.000000 0.000000 0.000000 10.000000 
L_Toe2_03 0.000000 0.000000 0.000000 0.000000 0.000000 0.000000 10.000000 
L_Toe3_02 0.000000 0.000000 0.000000 0.000000 0.000000 0.000000 10.000000 
L_Toe3_03 0.000000 0.000000 0.000000 0.000000 0.000000 0.000000 10.000000 
planeLockWeightLeft 0.000000 0.000000 0.000000 0.000000 0.000000 0.000000 10.000000 
R_Leg01 0.000000 0.000000 0.000000 0.000000 0.000000 0.000000 10.000000 
R_Leg02 0.000000 0.000000 0.000000 0.000000 0.000000 0.000000 10.000000 
R_Leg03 0.000000 0.000000 0.000000 0.000000 0.000000 0.000000 10.000000 
R_Foot 0.000000 0.000000 0.000000 0.000000 0.000000 0.000000 10.000000 
planeAlignerRight 0.000000 0.000000 0.000000 0.000000 0.000000 0.000000 10.000000 
R_Toe1_01 0.000000 0.000000 0.000000 0.000000 0.000000 0.000000 10.000000 
R_Toe2_01 0.000000 0.000000 0.000000 0.000000 0.000000 0.000000 10.000000 
R_Toe3_01 0.000000 0.000000 0.000000 0.000000 0.000000 0.000000 10.000000 
planeLockWeightRight 0.000000 0.000000 0.000000 0.000000 0.000000 0.000000 10.000000 
R_Toe1_02 0.000000 0.000000 0.000000 0.000000 0.000000 0.000000 10.000000 
R_Toe1_03 0.000000 0.000000 0.000000 0.000000 0.000000 0.000000 10.000000 
R_Toe2_02 0.000000 0.000000 0.000000 0.000000 0.000000 0.000000 10.000000 
R_Toe2_03 0.000000 0.000000 0.000000 0.000000 0.000000 0.000000 10.000000 
R_Toe3_02 0.000000 0.000000 0.000000 0.000000 0.000000 0.000000 10.000000 
R_Toe3_03 0.000000 0.000000 0.000000 0.000000 0.000000 0.000000 10.000000 
Rear_Leg02 0.000000 0.000000 0.000000 0.000000 0.000000 0.000000 10.000000 
Rear_Leg03 0.000000 0.000000 0.000000 0.000000 0.000000 0.000000 10.000000 
Rear_Leg04 0.000000 0.000000 0.000000 0.000000 0.000000 0.000000 10.000000 
Rear_Foot 0.000000 0.000000 0.000000 0.000000 0.000000 0.000000 10.000000 
planeAlignerCenter 0.000000 0.000000 0.000000 0.000000 0.000000 0.000000 10.000000 
Rear_Toe1_01 0.000000 0.000000 0.000000 0.000000 0.000000 0.000000 10.000000 
Rear_Toe2_01 0.000000 0.000000 0.000000 0.000000 0.000000 0.000000 10.000000 
Rear_Toe3_01 0.000000 0.000000 0.000000 0.000000 0.000000 0.000000 10.000000 
planeLockWeightCenter 0.000000 0.000000 0.000000 0.000000 0.000000 0.000000 10.000000 
Rear_Toe1_02 0.000000 0.000000 0.000000 0.000000 0.000000 0.000000 10.000000 
Rear_Toe1_03 0.000000 0.000000 0.000000 0.000000 0.000000 0.000000 10.000000 
Rear_Toe2_02 0.000000 0.000000 0.000000 0.000000 0.000000 0.000000 10.000000 
Rear_Toe2_03 0.000000 0.000000 0.000000 0.000000 0.000000 0.000000 10.000000 
Rear_Toe3_02 0.000000 0.000000 0.000000 0.000000 0.000000 0.000000 10.000000 
Rear_Toe3_03 0.000000 0.000000 0.000000 0.000000 0.000000 0.000000 10.000000 
Back_Bone 0.000000 0.000000 0.000000 0.000000 0.000000 0.000000 10.000000 
Head 0.000000 0.000000 0.000000 0.000000 0.000000 0.000000 10.000000 
Motor_Bone 0.000000 0.000000 0.000000 0.000000 0.000000 0.000000 10.000000 
Ping_Mechanism 0.000000 0.000000 0.000000 0.000000 0.000000 0.000000 10.000000 
BN_LookIK 0.000000 0.000000 0.000000 0.000000 0.000000 0.000000 10.000000 
bottomMouth 0.000000 0.000000 0.000000 0.000000 0.000000 0.000000 10.000000 
L_Mouth01 0.000000 0.000000 0.000000 0.000000 0.000000 0.000000 10.000000 
L_mouthFront 0.000000 0.000000 0.000000 0.000000 0.000000 0.000000 10.000000 
mouthGun 0.000000 0.000000 0.000000 0.000000 0.000000 0.000000 10.000000 
R_Mouth01 0.000000 0.000000 0.000000 0.000000 0.000000 0.000000 10.000000 
R_mouthFront 0.000000 0.000000 0.000000 0.000000 0.000000 0.000000 10.000000 
TopMouth 0.000000 0.000000 0.000000 0.000000 0.000000 0.000000 10.000000 
weapon_bone 0.000000 0.000000 0.000000 0.000000 0.000000 0.000000 10.000000 
#Beginning of Data. Separated by tabs
#Fr	Tx	Ty	Tz	Rx	Ry	Rz	SF
[Pinger_Root]
147 0.000000 0.000000 0.000000 -0.000075 -0.000000 -0.000020 0.000000
148 0.000000 0.000000 0.000000 -0.000075 -0.000000 -0.000020 0.000000
149 0.000000 0.000000 0.000000 -0.000075 -0.000000 -0.000020 0.000000
[Pelvis]
147 74.936020 916.536438 4404.463867 -98.423500 -85.023346 90.802017 4499.439453
148 74.627937 916.536438 4406.883301 -98.546471 -85.095436 90.925140 4501.802734
149 74.319839 916.536438 4409.302734 -98.672791 -85.167259 91.051674 4504.166016
[L_Hip]
147 5.766392 125.831482 872.656799 160.158691 -45.484905 122.312202 881.701050
148 5.766392 125.831482 872.656799 160.158691 -45.484905 122.312202 881.701050
149 5.766392 125.831482 872.656799 160.158691 -45.484905 122.312202 881.701050
[R_Hip]
147 5.765438 125.836372 -872.654907 38.087841 49.812687 125.703735 881.699829
148 5.765438 125.836372 -872.654907 38.087841 49.812687 125.703735 881.699829
149 5.765438 125.836372 -872.654907 38.087841 49.812687 125.703735 881.699829
[Rear_Leg01]
147 -192.298416 -925.602966 -0.001907 169.676117 1.939069 -160.534286 945.367432
148 -192.298416 -925.602966 -0.001907 169.676468 1.940625 -160.470657 945.367432
149 -192.298416 -925.602966 -0.001907 169.676788 1.942178 -160.407028 945.367432
[Spine1]
147 290.604584 5.007505 0.000477 7.265038 -0.619254 18.305544 290.647736
148 290.604584 5.007505 0.000477 7.265068 -0.619270 18.378534 290.647736
149 290.604584 5.007505 0.000477 7.265096 -0.619286 18.451525 290.647736
[L_Leg01]
147 761.932007 -0.002384 -0.069261 21.895769 -16.314775 -6.733777 761.932068
148 761.932007 -0.002384 -0.069261 21.962536 -16.273491 -6.906230 761.932068
149 761.932007 -0.002384 -0.069261 22.037725 -16.224329 -7.093989 761.932068
[L_Leg02]
147 1441.140503 -0.000954 -0.000715 2.822981 -0.191384 -131.040268 1441.140503
148 1441.140503 -0.000954 -0.000715 2.807374 -0.191343 -130.895248 1441.140503
149 1441.140503 -0.000954 -0.000715 2.790154 -0.190699 -130.737152 1441.140503
[L_Leg03]
147 1686.963989 -0.000715 -0.000954 -0.029913 0.014784 118.387360 1686.963989
148 1686.963989 -0.000715 -0.000954 -0.029914 0.014781 118.374954 1686.963989
149 1686.963989 -0.000715 -0.000954 -0.029916 0.014778 118.362511 1686.963989
[L_Foot]
147 3041.570068 -30.715107 11.297464 1.819537 12.987002 55.724201 3041.746094
148 3041.570068 -30.715107 11.297464 1.826424 12.992063 55.711090 3041.746094
149 3041.570068 -30.715107 11.297464 1.833311 12.997127 55.697987 3041.746094
[L_Toe1_01]
147 -188.216690 -224.732346 -21.137953 93.719086 -6.862507 -171.970444 293.899567
148 -188.216690 -224.732346 -21.137953 93.719086 -6.862507 -171.970444 293.899567
149 -188.216690 -224.732346 -21.137953 93.719086 -6.862507 -171.970444 293.899567
[L_Toe2_01]
147 200.746536 -219.926590 148.838394 -90.027290 -26.330410 -52.664124 332.896027
148 200.746536 -219.926590 148.838394 -90.027130 -26.329473 -52.664803 332.896027
149 200.746536 -219.926590 148.838394 -90.026962 -26.328541 -52.665478 332.896027
[L_Toe3_01]
147 188.832520 -219.859131 -191.078659 -99.788055 13.839008 -67.673027 347.140900
148 188.832520 -219.859131 -191.078659 -99.788063 13.839012 -67.673035 347.140900
149 188.832520 -219.859131 -191.078659 -99.788063 13.839012 -67.673035 347.140900
[planeAlignerLeft]
147 0.812531 -811.448792 -0.314951 0.000000 -90.000000 -90.001900 811.449280
148 0.812531 -811.448792 -0.314951 0.000000 -90.000000 -90.001900 811.449280
149 0.812531 -811.448792 -0.314951 0.000000 -90.000000 -90.001900 811.449280
[L_Toe1_02]
147 413.761139 0.000477 0.000000 0.000203 -25.410625 -0.000182 413.761139
148 413.761139 0.000477 0.000000 0.000203 -25.410625 -0.000182 413.761139
149 413.761139 0.000477 0.000000 0.000203 -25.410625 -0.000182 413.761139
[L_Toe1_03]
147 464.317322 0.000358 -0.000089 0.003733 53.356388 0.003733 464.317322
148 464.317322 0.000358 -0.000089 0.003733 53.356544 0.003733 464.317322
149 464.317322 0.000358 -0.000089 0.003733 53.356674 0.003733 464.317322
[L_Toe2_02]
147 342.235809 -0.000477 0.000238 0.001188 -72.402016 0.001188 342.235809
148 342.235809 -0.000477 0.000238 0.001188 -72.402016 0.001188 342.235809
149 342.235809 -0.000477 0.000238 0.001188 -72.402016 0.001188 342.235809
[L_Toe2_03]
147 420.210846 -0.000715 0.000000 0.029228 85.397423 0.029228 420.210846
148 420.210846 -0.000715 0.000000 0.029221 85.396400 0.029221 420.210846
149 420.210846 -0.000715 0.000000 0.029214 85.395256 0.029214 420.210846
[L_Toe3_02]
147 329.270111 0.000954 0.000000 0.001178 -80.480331 0.001178 329.270111
148 329.270111 0.000954 0.000000 0.001178 -80.480331 0.001178 329.270111
149 329.270111 0.000954 0.000000 0.001178 -80.480331 0.001178 329.270111
[L_Toe3_03]
147 439.137451 -0.001907 0.000954 -179.995956 78.605766 -179.992447 439.137451
148 439.137451 -0.001907 0.000954 -179.995956 78.605698 -179.992447 439.137451
149 439.137451 -0.001907 0.000954 -179.995956 78.605698 -179.992447 439.137451
[planeLockWeightLeft]
147 -0.000954 0.000238 -0.000305 -0.011826 -0.004376 0.005620 0.001029
148 -0.000954 0.000238 -0.000305 -0.011826 -0.004376 0.005620 0.001029
149 -0.000954 0.000238 -0.000305 -0.011826 -0.004376 0.005620 0.001029
[R_Leg01]
147 761.455627 -0.001907 -0.000358 120.634369 -9.987860 34.213623 761.455688
148 761.455627 -0.001907 -0.000358 120.595528 -9.848337 34.319569 761.455688
149 761.455627 -0.001907 -0.000358 120.555794 -9.702271 34.434776 761.455688
[R_Leg02]
147 1441.140625 0.000000 -0.000238 -1.439897 -0.245522 -121.675392 1441.140625
148 1441.140625 0.000000 -0.000238 -1.432286 -0.242382 -121.461655 1441.140625
149 1441.140625 0.000000 -0.000238 -1.424133 -0.238000 -121.231827 1441.140625
[R_Leg03]
147 1686.963989 0.000954 0.001431 0.080005 -0.042055 132.128494 1686.963989
148 1686.963989 0.000954 0.001431 0.079700 -0.042164 132.078583 1686.963989
149 1686.963989 0.000954 0.001431 0.079396 -0.042273 132.028656 1686.963989
[R_Foot]
147 3041.560059 -30.531288 -11.204481 -0.438823 -24.634298 55.967461 3041.734131
148 3041.560059 -30.531288 -11.204481 -0.438289 -24.636835 55.924847 3041.734131
149 3041.560059 -30.531288 -11.204481 -0.444844 -24.640209 55.883381 3041.734131
[planeAlignerRight]
147 -0.635147 -812.270569 -0.364304 0.000000 -89.960434 -90.005180 812.270874
148 -0.635147 -812.270569 -0.364304 0.000000 -89.960434 -90.005180 812.270874
149 -0.635147 -812.270569 -0.364304 0.000000 -89.960434 -90.005180 812.270874
[R_Toe1_01]
147 -188.383347 -224.864899 21.052242 76.763535 -0.414595 -172.728699 294.101532
148 -188.383347 -224.864899 21.052242 76.763535 -0.414595 -172.728699 294.101532
149 -188.383347 -224.864899 21.052242 76.763535 -0.414595 -172.728699 294.101532
[R_Toe2_01]
147 200.637817 -220.002121 -148.787384 -91.743256 32.873833 -59.182163 332.857574
148 200.637817 -220.002121 -148.787384 -91.743256 32.873833 -59.182163 332.857574
149 200.637817 -220.002121 -148.787384 -91.743256 32.873833 -59.182163 332.857574
[R_Toe3_01]
147 188.606735 -220.092957 191.126343 -73.225998 -8.456855 -73.756157 347.192566
148 188.606735 -220.092957 191.126343 -73.225998 -8.456855 -73.756157 347.192566
149 188.606735 -220.092957 191.126343 -73.225998 -8.456855 -73.756157 347.192566
[planeLockWeightRight]
147 -0.000477 0.000000 0.000000 -0.011823 -0.004379 -0.000027 0.000477
148 -0.000477 0.000000 0.000000 -0.011823 -0.004379 -0.000027 0.000477
149 -0.000477 0.000000 0.000000 -0.011823 -0.004379 -0.000027 0.000477
[R_Toe1_02]
147 413.762085 0.000477 -0.000119 0.000006 -25.434675 -0.000005 413.762085
148 413.762085 0.000477 -0.000119 0.000006 -25.434675 -0.000005 413.762085
149 413.762085 0.000477 -0.000119 0.000006 -25.434675 -0.000005 413.762085
[R_Toe1_03]
147 464.317810 0.000000 0.001088 0.006626 69.596176 0.006626 464.317810
148 464.317810 0.000000 0.001088 0.006626 69.596008 0.006626 464.317810
149 464.317810 0.000000 0.001088 0.006626 69.595871 0.006626 464.317810
[R_Toe2_02]
147 342.234741 -0.000954 0.000238 0.001197 -67.217873 0.001197 342.234741
148 342.234741 -0.000954 0.000238 0.001197 -67.218018 0.001197 342.234741
149 342.234741 -0.000954 0.000238 0.001197 -67.218193 0.001197 342.234741
[R_Toe2_03]
147 420.210846 0.000715 -0.000268 0.008230 73.603439 0.008230 420.210846
148 420.210846 0.000715 -0.000268 0.008230 73.603897 0.008230 420.210846
149 420.210846 0.000715 -0.000268 0.008231 73.604317 0.008231 420.210846
[R_Toe3_02]
147 329.270355 -0.000477 -0.000954 0.001184 -74.507309 0.001184 329.270355
148 329.270355 -0.000477 -0.000954 0.001184 -74.507874 0.001184 329.270355
149 329.270355 -0.000477 -0.000954 0.001184 -74.508446 0.001184 329.270355
[R_Toe3_03]
147 439.137939 0.000238 0.001431 -0.011578 83.294106 -0.008075 439.137939
148 439.137939 0.000238 0.001431 -0.011579 83.294395 -0.008076 439.137939
149 439.137939 0.000238 0.001431 -0.011579 83.294716 -0.008076 439.137939
[Rear_Leg02]
147 1162.777710 -0.029802 0.005960 0.657417 -2.910662 -124.189095 1162.777710
148 1162.777710 -0.029802 0.005960 0.655709 -2.911114 -124.154793 1162.777710
149 1162.777710 -0.029802 0.005960 0.654001 -2.911566 -124.120483 1162.777710
[Rear_Leg03]
147 607.192505 -0.013351 -0.073195 0.009080 -0.003784 64.674049 607.192505
148 607.192505 -0.013351 -0.073195 0.008949 -0.003700 64.663445 607.192505
149 607.192505 -0.013351 -0.073195 0.008819 -0.003617 64.652840 607.192505
[Rear_Leg04]
147 995.874512 -0.020504 -0.011921 -0.040611 -0.014908 58.957546 995.874573
148 995.874512 -0.020504 -0.011921 -0.040608 -0.014916 58.935585 995.874573
149 995.874512 -0.020504 -0.011921 -0.040606 -0.014923 58.913620 995.874573
[Rear_Foot]
147 3096.176270 -0.067472 -0.041425 -144.494568 85.684166 48.282745 3096.176270
148 3096.176270 -0.067472 -0.041425 -144.460617 85.687386 48.315441 3096.176270
149 3096.176270 -0.067472 -0.041425 -144.426682 85.690651 48.348148 3096.176270
[planeAlignerCenter]
147 0.350077 0.966311 -838.790894 0.000009 0.000003 -179.999985 838.791565
148 0.350077 0.966311 -838.790894 0.000009 0.000003 -179.999985 838.791565
149 0.350077 0.966311 -838.790894 0.000009 0.000003 -179.999985 838.791565
[Rear_Toe1_01]
147 0.653352 83.966492 -371.173737 0.307618 41.882698 90.446373 380.553192
148 0.653352 83.966492 -371.173737 0.306642 41.884262 90.444710 380.553192
149 0.653352 83.966492 -371.173737 0.305665 41.885849 90.443054 380.553192
[Rear_Toe2_01]
147 178.200760 -294.826019 -362.060547 -7.196267 34.406261 -66.271294 499.765686
148 178.200760 -294.826019 -362.060547 -7.196267 34.406261 -66.271294 499.765686
149 178.200760 -294.826019 -362.060547 -7.196267 34.406261 -66.271294 499.765686
[Rear_Toe3_01]
147 -153.359680 -308.780914 -362.060852 3.284096 33.494579 -112.562370 499.952881
148 -153.359680 -308.780914 -362.060852 3.284359 33.495762 -112.561325 499.952881
149 -153.359680 -308.780914 -362.060852 3.284626 33.496929 -112.560242 499.952881
[planeLockWeightCenter]
147 -0.000062 0.000238 0.000000 -0.011814 -0.004373 -0.000015 0.000246
148 -0.000062 0.000238 0.000000 -0.011814 -0.004373 -0.000015 0.000246
149 -0.000062 0.000238 0.000000 -0.011814 -0.004373 -0.000015 0.000246
[Rear_Toe1_02]
147 379.707825 0.194073 0.000477 -0.000243 -31.686306 0.006934 379.707855
148 379.707825 0.194073 0.000477 -0.000243 -31.685835 0.006934 379.707855
149 379.707825 0.194073 0.000477 -0.000243 -31.685350 0.006934 379.707855
[Rear_Toe1_03]
147 500.129700 0.165701 0.000119 -0.000103 51.902481 0.007295 500.129761
148 500.129700 0.165701 0.000119 -0.000103 51.902481 0.007295 500.129761
149 500.129700 0.165701 0.000119 -0.000103 51.902481 0.007295 500.129761
[Rear_Toe2_02]
147 340.494507 0.000238 -0.000954 0.001192 -69.854523 0.001192 340.494507
148 340.494507 0.000238 -0.000954 0.001192 -69.854523 0.001192 340.494507
149 340.494507 0.000238 -0.000954 0.001192 -69.854523 0.001192 340.494507
[Rear_Toe2_03]
147 433.103577 0.000000 0.000238 0.006696 69.810326 0.006696 433.103546
148 433.103577 0.000000 0.000238 0.006696 69.810326 0.006696 433.103546
149 433.103577 0.000000 0.000238 0.006696 69.810326 0.006696 433.103546
[Rear_Toe3_02]
147 340.494141 -0.000358 -0.000477 0.008288 -67.274704 -0.009460 340.494171
148 340.494141 -0.000358 -0.000477 0.008288 -67.274704 -0.009460 340.494171
149 340.494141 -0.000358 -0.000477 0.008288 -67.274704 -0.009460 340.494171
[Rear_Toe3_03]
147 433.103577 0.001431 -0.000238 -0.000972 65.956589 -0.004547 433.103546
148 433.103577 0.001431 -0.000238 -0.000972 65.956718 -0.004547 433.103546
149 433.103577 0.001431 -0.000238 -0.000972 65.956825 -0.004547 433.103546
[Back_Bone]
147 1312.175781 -701.934692 0.000954 1.475704 -0.042279 -83.929443 1488.125488
148 1312.175781 -701.934692 0.000954 1.475829 -0.039192 -84.060692 1488.125488
149 1312.175781 -701.934692 0.000954 1.475948 -0.036104 -84.191956 1488.125488
[Head]
147 1406.159424 809.709290 0.001431 0.000958 -1.477971 21.268105 1622.625488
148 1406.159424 809.709290 0.001431 0.000958 -1.477971 21.268105 1622.625488
149 1406.159424 809.709290 0.001431 0.000958 -1.477971 21.268105 1622.625488
[Motor_Bone]
147 1158.364380 -417.834747 0.000477 -0.000105 0.000046 -105.985291 1231.419434
148 1158.364380 -417.834747 0.000477 -0.000105 0.000046 -105.985291 1231.419434
149 1158.364380 -417.834747 0.000477 -0.000105 0.000046 -105.985291 1231.419434
[Ping_Mechanism]
147 1237.432739 -443.989380 0.257542 0.000103 -0.000053 82.120995 1314.673462
148 1237.180054 -443.828674 0.217457 0.000103 -0.000053 82.120995 1314.381470
149 1236.927490 -443.667938 0.177370 0.000103 -0.000053 82.120995 1314.089478
[BN_LookIK]
147 193.241119 1380.371704 -0.002861 0.000000 89.965736 -31.038179 1393.832153
148 193.241119 1380.371704 -0.002861 0.000000 89.965736 -31.038179 1393.832153
149 193.241119 1380.371704 -0.002861 0.000000 89.965736 -31.038179 1393.832153
[bottomMouth]
147 -435.092926 615.759399 -0.000954 -0.000022 0.000016 73.527184 753.966492
148 -435.092926 615.759399 -0.000954 -0.000022 0.000016 73.527184 753.966492
149 -435.092926 615.759399 -0.000954 -0.000022 0.000016 73.527184 753.966492
[L_Mouth01]
147 554.440979 7.658243 838.222046 150.204178 23.759130 109.605339 1005.027161
148 554.440979 7.658243 838.222046 150.204178 23.759130 109.605339 1005.027161
149 554.440979 7.658243 838.222046 150.204178 23.759130 109.605339 1005.027161
[L_mouthFront]
147 551.629089 934.514771 339.150421 0.000081 2.804060 79.119301 1136.941284
148 551.629089 934.514771 339.150421 0.000081 2.804060 79.119301 1136.941284
149 551.629089 934.514771 339.150421 0.000081 2.804060 79.119301 1136.941284
[mouthGun]
147 55.332661 1627.420898 0.000000 0.000023 0.000009 -11.038128 1628.361328
148 55.332661 1627.420898 0.000000 0.000023 0.000009 -11.038128 1628.361328
149 55.332661 1627.420898 0.000000 0.000023 0.000009 -11.038128 1628.361328
[R_Mouth01]
147 554.442383 7.659197 -838.223938 29.795891 -23.759109 109.605331 1005.029541
148 554.442383 7.659197 -838.223938 29.795891 -23.759109 109.605331 1005.029541
149 554.442383 7.659197 -838.223938 29.795891 -23.759109 109.605331 1005.029541
[R_mouthFront]
147 551.629089 934.514282 -339.151367 0.000029 -2.803930 79.119133 1136.941162
148 551.629089 934.514282 -339.151367 0.000029 -2.803930 79.119133 1136.941162
149 551.629089 934.514282 -339.151367 0.000029 -2.803930 79.119133 1136.941162
[TopMouth]
147 461.269867 -56.106091 -0.008583 -0.000059 -0.000268 92.025169 464.669525
148 461.269867 -56.106091 -0.008583 -0.000059 -0.000268 92.025169 464.669525
149 461.269867 -56.106091 -0.008583 -0.000059 -0.000268 92.025169 464.669525
[weapon_bone]
147 -987.239868 1448.372803 0.001431 0.000000 89.965736 -31.038221 1752.833740
148 -987.239868 1448.372803 0.001431 0.000000 89.965736 -31.038221 1752.833740
149 -987.239868 1448.372803 0.001431 0.000000 89.965736 -31.038221 1752.833740
